HIERARCHY
ROOT SpineBase
{
  OFFSET 0.000000 0.000000 0.000000
  CHANNELS 6 Xposition Yposition Zposition Zrotation Xrotation Yrotation
  JOINT SpineMid
  {
    OFFSET 0.000000 29.185471 0.000000
    CHANNELS 3 Zrotation Xrotation Yrotation
    JOINT SpineShoulder
    {
      OFFSET 0.053891 21.749355 -0.699208
      CHANNELS 3 Zrotation Xrotation Yrotation
      JOINT Neck
      {
        OFFSET 0.056285 7.213125 -0.530568
        CHANNELS 3 Zrotation Xrotation Yrotation
        JOINT Head
        {
          OFFSET 4.285673 13.761902 0.410130
          CHANNELS 3 Zrotation Xrotation Yrotation
          End Site
          {
            OFFSET 0 0 0
          }
        }
      }
      JOINT ShoulderLeft
      {
        OFFSET -10.760648 -1.919022 -12.025136
        CHANNELS 3 Zrotation Xrotation Yrotation
        JOINT ElbowLeft
        {
          OFFSET -4.763484 -24.342614 -5.305908
          CHANNELS 3 Zrotation Xrotation Yrotation
          JOINT WristLeft
          {
            OFFSET 3.952746 -23.017325 -3.025000
            CHANNELS 3 Zrotation Xrotation Yrotation
            JOINT HandLeft
            {
              OFFSET 0.937555 -4.053675 0.288971
              CHANNELS 3 Zrotation Xrotation Yrotation
              JOINT HandTipLeft
              {
                OFFSET 0.304616 -6.267190 0.478399
                CHANNELS 3 Zrotation Xrotation Yrotation
                End Site
                {
                  OFFSET 0 0 0
                }
              }
              JOINT ThumbLeft
              {
                OFFSET 2.916637 1.649008 0.284328
                CHANNELS 3 Zrotation Xrotation Yrotation
                End Site
                {
                  OFFSET 0 0 0
                }
              }
            }
          }
        }
      }
      JOINT ShoulderRight
      {
        OFFSET 12.496386 -4.172482 10.270262
        CHANNELS 3 Zrotation Xrotation Yrotation
        JOINT ElbowRight
        {
          OFFSET 0.688336 -27.729267 5.739720
          CHANNELS 3 Zrotation Xrotation Yrotation
          JOINT WristRight
          {
            OFFSET -0.196825 -22.637628 -4.789140
            CHANNELS 3 Zrotation Xrotation Yrotation
            JOINT HandRight
            {
              OFFSET -0.663404 -3.104681 -0.742928
              CHANNELS 3 Zrotation Xrotation Yrotation
              JOINT HandTipRight
              {
                OFFSET -0.662711 -3.764484 -0.271759
                CHANNELS 3 Zrotation Xrotation Yrotation
                End Site
                {
                  OFFSET 0 0 0
                }
              }
              JOINT ThumbRight
              {
                OFFSET -0.426672 1.964709 -3.336930
                CHANNELS 3 Zrotation Xrotation Yrotation
                End Site
                {
                  OFFSET 0 0 0
                }
              }
            }
          }
        }
      }
    }
  }
  JOINT HipLeft
  {
    OFFSET -4.854756 1.941772 -7.449757
    CHANNELS 3 Zrotation Xrotation Yrotation
    JOINT KneeLeft
    {
      OFFSET -7.918895 -26.347008 -0.928285
      CHANNELS 3 Zrotation Xrotation Yrotation
      JOINT AnkleLeft
      {
        OFFSET -6.789933 -33.458747 6.187923
        CHANNELS 3 Zrotation Xrotation Yrotation
        JOINT FootLeft
        {
          OFFSET 3.907554 -7.532456 -1.022481
          CHANNELS 3 Zrotation Xrotation Yrotation
          End Site
          {
            OFFSET 0 0 0
          }
        }
      }
    }
  }
  JOINT HipRight
  {
    OFFSET 5.485180 0.102200 0.627204
    CHANNELS 3 Zrotation Xrotation Yrotation
    JOINT KneeRight
    {
      OFFSET -4.014035 -27.721694 5.843941
      CHANNELS 3 Zrotation Xrotation Yrotation
      JOINT AnkleRight
      {
        OFFSET -10.729377 -31.746080 1.806643
        CHANNELS 3 Zrotation Xrotation Yrotation
        JOINT FootRight
        {
          OFFSET 0.838920 -7.939451 -5.789263
          CHANNELS 3 Zrotation Xrotation Yrotation
          End Site
          {
            OFFSET 0 0 0
          }
        }
      }
    }
  }
}
MOTION
Frames: 14
Frame Time: 0.033333
-30.591078 71.295401 327.249836 -2.861224 -6.463085 -44.319342 -1.867030 0.953267 44.158589 0.006783 0.153943 -0.117917 -11.564872 7.084445 1.142734 0.000000 0.000000 0.000000 4.608833 24.933830 -4.339084 11.195148 1.453044 7.951923 -8.679120 14.715980 4.644512 17.744577 0.490697 0.428269 0.000000 0.000000 0.000000 0.000000 0.000000 0.000000 1.539222 8.795123 0.023512 28.970093 -33.246167 4.384161 64.206785 -51.330552 63.658281 24.032562 41.683062 -52.838551 0.000000 0.000000 0.000000 0.000000 0.000000 0.000000 -2.007097 9.793071 43.554334 -2.928799 2.852955 -0.415669 -0.295748 -3.421762 1.856084 0.000000 0.000000 0.000000 -2.786876 12.728781 44.545219 -3.225589 -8.278886 1.043061 21.362569 -10.164658 -19.107603 0.000000 0.000000 0.000000
-29.613209 71.652782 327.199345 -3.347347 -3.784626 -46.550827 -2.039116 0.969413 46.417322 -0.014361 0.096518 -0.156706 -9.968578 10.407211 -0.621177 0.000000 0.000000 0.000000 8.098721 26.720033 -6.398871 12.839738 -0.855109 10.235027 -7.133510 14.361501 5.084369 15.742442 -0.647715 -0.208501 0.000000 0.000000 0.000000 0.000000 0.000000 0.000000 1.923589 6.464462 0.064771 30.602644 -35.876133 5.572544 65.793045 -50.855204 64.789935 16.228868 35.182287 -41.631179 0.000000 0.000000 0.000000 0.000000 0.000000 0.000000 -0.444600 7.754844 45.822972 -3.447006 2.769491 -0.608821 0.596455 -2.645940 2.403234 0.000000 0.000000 0.000000 4.655900 9.059848 47.320261 -8.832513 4.101218 -2.476764 30.766756 -8.594861 -17.425280 0.000000 0.000000 0.000000
-29.313002 71.906672 326.779172 -4.378934 -1.041883 -49.818983 -2.227334 0.995811 49.728427 -0.011570 0.160550 -0.211649 -6.751207 13.165576 -2.470578 0.000000 0.000000 0.000000 11.702221 26.147947 -7.657647 13.193097 -2.508138 11.633561 -5.724827 11.611899 5.153279 14.797773 0.511109 -0.695750 0.000000 0.000000 0.000000 0.000000 0.000000 0.000000 2.986511 3.280063 0.171304 32.682640 -38.753699 6.882383 64.019612 -49.883281 63.207294 13.006672 31.468746 -36.489987 0.000000 0.000000 0.000000 0.000000 0.000000 0.000000 3.204625 6.522219 49.283511 -5.180878 3.842969 -1.033334 0.157836 -0.578858 3.815868 0.000000 0.000000 0.000000 8.568122 6.728837 50.887284 -9.374597 11.447304 -4.081689 27.909063 -0.618850 -11.575840 0.000000 0.000000 0.000000
-29.630163 71.956198 325.887033 -5.773657 1.778619 -52.656476 -2.541368 1.011959 52.669704 0.092696 0.234139 -0.272391 -2.778230 14.665988 -4.080243 0.000000 0.000000 0.000000 15.382983 24.095426 -8.200096 11.501057 -5.158402 12.210559 -4.564330 9.848800 5.145780 13.005134 -1.123896 -0.783246 0.000000 0.000000 0.000000 0.000000 0.000000 0.000000 4.318727 0.166592 0.371129 32.089164 -38.113712 6.555889 62.651759 -49.828046 61.289010 12.406812 35.998091 -36.052466 0.000000 0.000000 0.000000 0.000000 0.000000 0.000000 8.659650 6.189812 52.524643 -7.854871 5.922247 -1.547283 -1.650343 2.735310 6.204121 0.000000 0.000000 0.000000 9.339119 5.237328 53.467808 -5.569770 8.541360 -3.086467 23.869181 4.231088 -11.830935 0.000000 0.000000 0.000000
-29.451442 72.103038 325.388859 -6.913223 4.466433 -55.798261 -2.277793 0.970517 55.961252 0.257474 0.144491 -0.301763 0.366719 16.457044 -5.478961 0.000000 0.000000 0.000000 17.449956 21.114280 -7.920281 9.066266 -8.348128 11.759010 -2.730391 12.297995 5.387960 12.240234 -3.370333 -0.489902 0.000000 0.000000 0.000000 0.000000 0.000000 0.000000 5.030674 -2.220434 0.528737 29.764975 -34.360811 4.929494 63.856532 -50.362406 60.900556 16.215516 46.558202 -43.347511 0.000000 0.000000 0.000000 0.000000 0.000000 0.000000 12.450067 5.937764 56.043697 -9.313232 7.093368 -1.831773 -3.151699 5.472305 8.369329 0.000000 0.000000 0.000000 14.556057 5.464109 57.194815 -8.212147 11.703454 -3.779586 20.775183 3.383207 -8.316846 0.000000 0.000000 0.000000
-28.804701 72.124360 325.208291 -7.265001 6.454568 -58.058433 -2.082156 0.756004 58.325127 0.296730 0.325702 -0.304439 2.367158 17.310690 -6.434080 0.000000 0.000000 0.000000 18.203728 16.375420 -6.752937 5.804012 -9.743172 10.131281 -1.189228 13.918958 5.293749 14.924128 -2.032498 0.283301 0.000000 0.000000 0.000000 0.000000 0.000000 0.000000 5.323413 -4.125886 0.633155 25.678502 -27.974510 2.676047 77.659532 -52.380517 73.098732 49.378601 67.012258 -86.765907 0.000000 0.000000 0.000000 0.000000 0.000000 0.000000 14.272630 5.038715 58.658323 -9.478871 7.647276 -2.011803 -2.558683 6.191399 8.931586 0.000000 0.000000 0.000000 17.639154 5.041261 59.853652 -9.198903 13.578479 -4.009237 15.112431 -1.163156 -3.965019 0.000000 0.000000 0.000000
-28.079616 72.065591 325.205002 -7.336511 7.854053 -59.238659 -1.644430 0.568210 59.566349 0.109643 0.625082 -0.317211 3.771084 17.574698 -6.979180 0.000000 0.000000 0.000000 18.566995 11.029290 -5.282455 1.122640 -10.364427 7.916472 -5.768138 14.450321 4.696460 19.938723 -2.881837 2.006853 0.000000 0.000000 0.000000 0.000000 0.000000 0.000000 5.473637 -5.359776 0.698831 20.081826 -17.345190 0.248087 81.705548 -50.069666 63.601403 122.461408 77.243677 -170.418227 0.000000 0.000000 0.000000 0.000000 0.000000 0.000000 15.024856 3.857986 60.104671 -8.781282 7.828736 -2.118657 -1.302285 5.353334 8.329006 0.000000 0.000000 0.000000 19.197349 4.458301 61.259656 -9.248069 13.862372 -3.921498 13.888326 -0.372834 -3.259505 0.000000 0.000000 0.000000
-27.198293 71.995268 325.408949 -7.150100 8.873248 -59.948524 -1.807630 0.376392 60.301136 0.206002 0.418749 -0.319728 4.815225 18.016291 -7.478057 0.000000 0.000000 0.000000 17.823593 5.555685 -3.604885 -2.873028 -9.271131 5.863917 -15.584974 8.555051 2.428613 29.372924 2.745524 3.137439 0.000000 0.000000 0.000000 0.000000 0.000000 0.000000 5.413410 -6.224384 0.718143 14.096401 -5.440249 -1.042900 77.588092 -48.183634 52.506192 178.880134 85.629100 133.429802 0.000000 0.000000 0.000000 0.000000 0.000000 0.000000 15.105201 2.506656 61.000977 -7.802731 7.812872 -2.192116 -2.653226 7.794776 10.169557 0.000000 0.000000 0.000000 18.951433 3.165930 61.918253 -8.203444 13.283097 -3.659719 12.081427 -9.291494 -2.276745 0.000000 0.000000 0.000000
-26.184093 71.904467 325.798843 -6.784330 9.463189 -60.366501 -1.527093 0.272865 60.715701 0.124031 0.310123 -0.324168 5.127506 18.121173 -7.693320 0.000000 0.000000 0.000000 16.023375 0.968095 -2.170642 -5.649085 -7.790538 4.227443 -27.191480 2.041017 -1.376748 38.096176 7.640907 3.093833 0.000000 0.000000 0.000000 0.000000 0.000000 0.000000 5.062340 -6.419383 0.663876 8.507637 5.211429 -1.036614 46.075401 -49.234768 32.079290 11.409709 76.970820 -41.275709 0.000000 0.000000 0.000000 0.000000 0.000000 0.000000 14.478205 1.264340 61.454773 -7.031834 7.424435 -2.215530 -4.785335 10.626979 12.606587 0.000000 0.000000 0.000000 18.710523 2.256881 62.328061 -7.783964 12.468930 -3.356223 8.570540 -23.167854 -1.117580 0.000000 0.000000 0.000000
-25.005035 71.803571 326.446004 -6.166569 9.606436 -60.179221 -0.982490 0.192621 60.489896 0.068255 0.137261 -0.308302 4.461435 18.701232 -7.863328 0.000000 0.000000 0.000000 13.998167 -1.936460 -1.343850 -7.951387 -6.785765 3.114829 -37.873702 -8.365407 -9.098830 44.865430 18.341221 0.741110 0.000000 0.000000 0.000000 0.000000 0.000000 0.000000 4.294511 -5.884620 0.518199 4.027351 12.786685 -0.274097 11.246549 -31.895182 6.358644 14.674242 49.988076 -21.978776 0.000000 0.000000 0.000000 0.000000 0.000000 0.000000 12.817621 -0.107660 61.110017 -5.906196 6.457215 -2.125754 -5.707588 12.783118 14.306190 0.000000 0.000000 0.000000 16.795690 0.506934 61.808843 -6.473132 11.539174 -3.013670 10.954412 -29.369186 -2.282834 0.000000 0.000000 0.000000
-23.904350 71.730294 327.074769 -5.388505 9.416213 -59.290674 -0.481368 -0.045119 59.523436 -0.144658 0.273844 -0.299918 3.411670 18.766458 -7.754802 0.000000 0.000000 0.000000 11.598898 -3.464673 -0.823370 -8.459996 -6.109423 2.365185 -41.716337 -15.786113 -15.388360 42.668119 25.287003 -0.072249 0.000000 0.000000 0.000000 0.000000 0.000000 0.000000 3.691661 -5.278696 0.405078 1.197870 16.765296 0.498881 2.349079 -20.489232 0.158965 17.392175 38.846344 -14.653645 0.000000 0.000000 0.000000 0.000000 0.000000 0.000000 10.636594 -1.345762 59.916051 -4.825127 5.184661 -1.945082 -6.537230 14.645954 15.739607 0.000000 0.000000 0.000000 14.651580 -1.143631 60.559415 -5.730103 10.842177 -2.739129 18.508503 -33.184777 -5.057107 0.000000 0.000000 0.000000
-22.942448 71.671941 327.666490 -4.738651 9.151938 -58.312655 -0.471142 -0.246328 58.475751 -0.168447 0.234958 -0.283934 2.027732 18.859546 -7.612802 0.000000 0.000000 0.000000 9.799986 -4.674424 -0.438014 -8.615684 -5.297986 1.874086 -41.441948 -18.891962 -17.876165 34.798563 25.565590 1.967239 0.000000 0.000000 0.000000 0.000000 0.000000 0.000000 3.235953 -4.860297 0.324128 0.432158 17.051974 0.737994 0.194242 -15.435236 -1.308426 17.648103 38.000532 -13.046926 0.000000 0.000000 0.000000 0.000000 0.000000 0.000000 8.636369 -2.163032 58.592642 -4.179601 4.068184 -1.786403 -6.962840 15.755273 16.722787 0.000000 0.000000 0.000000 12.580356 -2.270207 59.195313 -5.089382 9.607641 -2.392515 18.218827 -33.404345 -4.817692 0.000000 0.000000 0.000000
-22.250749 71.641971 328.132383 -4.302721 8.858537 -57.597228 -0.411717 -0.407334 57.711804 -0.189775 0.158814 -0.273972 1.353071 19.115492 -7.532866 0.000000 0.000000 0.000000 8.149766 -4.846148 -0.267672 -7.632283 -4.615407 1.591215 -36.840307 -19.624348 -16.953674 22.162679 20.857706 4.900705 0.000000 0.000000 0.000000 0.000000 0.000000 0.000000 2.925887 -4.350969 0.267734 2.180342 13.000398 0.236863 -1.223416 -11.600799 -1.163291 18.277367 44.383068 -15.747663 0.000000 0.000000 0.000000 0.000000 0.000000 0.000000 7.062145 -2.671698 57.595268 -3.526228 3.272514 -1.649279 -8.153644 16.659150 17.763796 0.000000 0.000000 0.000000 10.600762 -2.915072 58.057180 -4.248313 7.995755 -1.990164 15.028624 -29.215881 -3.664335 0.000000 0.000000 0.000000
-22.028908 71.618863 328.360096 -4.274347 8.615775 -57.256727 -0.435666 -0.434498 57.358594 -0.180856 0.094962 -0.273583 0.856441 19.016533 -7.344586 0.000000 0.000000 0.000000 6.670167 -4.065649 -0.254106 -5.461905 -4.944059 1.367390 -29.715060 -16.609367 -12.631530 10.779357 11.874900 5.128276 0.000000 0.000000 0.000000 0.000000 0.000000 0.000000 2.922240 -4.046378 0.262593 1.730559 12.831760 0.363479 1.295529 -9.219192 -1.632394 8.697246 50.605592 -13.734661 0.000000 0.000000 0.000000 0.000000 0.000000 0.000000 6.466359 -2.638564 57.149810 -3.288581 3.117991 -1.609668 -8.964856 17.006651 18.358976 0.000000 0.000000 0.000000 9.373378 -2.790305 57.441202 -3.729166 6.575023 -1.690868 13.670156 -27.757741 -3.425068 0.000000 0.000000 0.000000
